<?xml version="1.0" encoding="UTF-8" standalone="no"?>
<svg xmlns="http://www.w3.org/2000/svg" width="1538" height="809">
<g transform="scale(1,1)">
<path d="M 760.6691666666667,404.49999999999994 760.6691666666667,276.3333333333333 760.6691666666667,276.3333333333333 760.8512153628868,274.60125568907904 761.3894050499557,272.9448781493093 762.260214256028,271.43659236069345 763.4255844401921,270.14231764975204 764.8345833333333,269.11862003197245 766.4256309226947,268.41024000549777 768.1291907939277,268.04813717666946 769.8708092060723,268.04813717666946 771.5743690773053,268.41024000549777 773.1654166666667,269.11862003197245 774.5744155598079,270.14231764975204 775.739785743972,271.43659236069345 776.6105949500443,272.9448781493093 777.1487846371132,274.60125568907904 777.3308333333333,276.3333333333333 777.3308333333333,404.49999999999994 777.3308333333333,404.49999999999994 777.1487846371132,406.2320776442542 776.6105949500443,407.88845518402394 775.739785743972,409.3967409726398 774.5744155598079,410.6910156835812 773.1654166666667,411.7147133013608 771.5743690773053,412.4230933278355 769.8708092060723,412.7851961566638 768.1291907939277,412.7851961566638 766.4256309226947,412.4230933278355 764.8345833333333,411.7147133013608 763.4255844401921,410.6910156835812 762.260214256028,409.3967409726398 761.3894050499557,407.88845518402394 760.8512153628868,406.2320776442542 760.6691666666667,404.49999999999994 " style="stroke-linecap:round;fill:none;stroke:rgba(255,0,0,1);stroke-width:1.2816666666666667pt;" /><path d="M 769,268.00249999999994 897.1666666666667,268.00249999999994 897.1666666666667,268.0025 898.8987443109211,268.1845486962201 900.5551218506907,268.7227383832891 902.0634076393067,269.5935475893614 903.357682350248,270.7589177735254 904.3813799680277,272.16791666666666 905.0897599945023,273.75896425602804 905.4518628233307,275.462524127261 905.4518628233307,277.2041425394056 905.0897599945023,278.9077024106386 904.3813799680277,280.49875 903.357682350248,281.9077488931412 902.0634076393067,283.07311907730525 900.5551218506907,283.94392828337755 898.8987443109211,284.48211797044655 897.1666666666667,284.66416666666663 769,284.66416666666663 769,284.66416666666663 767.2679223557457,284.48211797044655 765.611544815976,283.94392828337755 764.1032590273601,283.07311907730525 762.8089843164188,281.9077488931412 761.7852866986391,280.49875 761.0769066721645,278.9077024106386 760.7148038433361,277.2041425394056 760.7148038433361,275.462524127261 761.0769066721645,273.75896425602804 761.7852866986391,272.16791666666666 762.8089843164188,270.7589177735254 764.1032590273601,269.5935475893614 765.611544815976,268.7227383832891 767.2679223557457,268.1845486962201 769,268.00249999999994 " style="stroke-linecap:round;fill:none;stroke:rgba(255,0,0,1);stroke-width:1.2816666666666667pt;" /><path d="M 905.4975000000001,276.3333333333333 905.4975000000001,404.49999999999994 905.4975000000001,404.49999999999994 905.3154513037799,406.2320776442542 904.777261616711,407.88845518402394 903.9064524106387,409.3967409726398 902.7410822264746,410.6910156835812 901.3320833333335,411.7147133013608 899.741035743972,412.4230933278355 898.037475872739,412.7851961566638 896.2958574605944,412.7851961566638 894.5922975893615,412.4230933278355 893.00125,411.7147133013608 891.5922511068588,410.6910156835812 890.4268809226947,409.3967409726398 889.5560717166225,407.88845518402394 889.0178820295536,406.2320776442542 888.8358333333334,404.49999999999994 888.8358333333334,276.3333333333333 888.8358333333334,276.3333333333333 889.0178820295536,274.60125568907904 889.5560717166225,272.9448781493093 890.4268809226947,271.43659236069345 891.5922511068588,270.14231764975204 893.00125,269.11862003197245 894.5922975893615,268.41024000549777 896.2958574605944,268.04813717666946 898.037475872739,268.04813717666946 899.741035743972,268.41024000549777 901.3320833333335,269.11862003197245 902.7410822264746,270.14231764975204 903.9064524106387,271.43659236069345 904.777261616711,272.9448781493094 905.3154513037799,274.60125568907904 905.4975000000001,276.3333333333333 " style="stroke-linecap:round;fill:none;stroke:rgba(255,0,0,1);stroke-width:1.2816666666666667pt;" /><path d="M 897.1666666666667,412.8308333333333 769,412.8308333333333 769,412.83083333333326 767.2679223557457,412.6487846371132 765.611544815976,412.1105949500442 764.1032590273601,411.2397857439719 762.8089843164188,410.07441555980785 761.7852866986391,408.6654166666666 761.0769066721645,407.0743690773052 760.7148038433361,405.37080920607224 760.7148038433361,403.62919079392765 761.0769066721645,401.92563092269467 761.7852866986391,400.3345833333333 762.8089843164188,398.92558444019204 764.1032590273601,397.760214256028 765.611544815976,396.8894050499557 767.2679223557457,396.3512153628867 769,396.1691666666666 897.1666666666667,396.1691666666666 897.1666666666667,396.1691666666666 898.8987443109211,396.3512153628867 900.5551218506907,396.8894050499557 902.0634076393067,397.760214256028 903.357682350248,398.92558444019204 904.3813799680277,400.3345833333333 905.0897599945023,401.92563092269467 905.4518628233307,403.6291907939277 905.4518628233305,405.37080920607224 905.0897599945023,407.0743690773053 904.3813799680275,408.6654166666666 903.357682350248,410.0744155598079 902.0634076393065,411.23978574397194 900.5551218506907,412.1105949500442 898.898744310921,412.6487846371132 897.1666666666667,412.8308333333333 " style="stroke-linecap:round;fill:none;stroke:rgba(255,0,0,1);stroke-width:1.2816666666666667pt;" /><path d="M 760.6691666666667,404.49999999999994 760.6691666666667,372.4583333333333 760.6691666666667,372.4583333333333 760.8512153628868,370.72625568907904 761.3894050499557,369.0698781493093 762.260214256028,367.56159236069345 763.4255844401921,366.26731764975204 764.8345833333333,365.24362003197245 766.4256309226947,364.53524000549777 768.1291907939277,364.17313717666946 769.8708092060723,364.17313717666946 771.5743690773053,364.53524000549777 773.1654166666667,365.24362003197245 774.5744155598079,366.26731764975204 775.739785743972,367.56159236069345 776.6105949500443,369.0698781493093 777.1487846371132,370.72625568907904 777.3308333333333,372.4583333333333 777.3308333333333,404.49999999999994 777.3308333333333,404.49999999999994 777.1487846371132,406.2320776442542 776.6105949500443,407.88845518402394 775.739785743972,409.3967409726398 774.5744155598079,410.6910156835812 773.1654166666667,411.7147133013608 771.5743690773053,412.4230933278355 769.8708092060723,412.7851961566638 768.1291907939277,412.7851961566638 766.4256309226947,412.4230933278355 764.8345833333333,411.7147133013608 763.4255844401921,410.6910156835812 762.260214256028,409.3967409726398 761.3894050499557,407.88845518402394 760.8512153628868,406.2320776442542 760.6691666666667,404.49999999999994 " style="stroke-linecap:round;fill:none;stroke:rgba(255,0,0,1);stroke-width:1.2816666666666667pt;" /><path d="M 769,364.12749999999994 897.1666666666667,364.12749999999994 897.1666666666667,364.1275 898.8987443109211,364.3095486962201 900.5551218506907,364.8477383832891 902.0634076393067,365.7185475893614 903.357682350248,366.8839177735254 904.3813799680277,368.29291666666666 905.0897599945023,369.88396425602804 905.4518628233307,371.587524127261 905.4518628233307,373.3291425394056 905.0897599945023,375.0327024106386 904.3813799680277,376.62375 903.357682350248,378.0327488931412 902.0634076393067,379.19811907730525 900.5551218506907,380.06892828337755 898.8987443109211,380.60711797044655 897.1666666666667,380.78916666666663 769,380.78916666666663 769,380.78916666666663 767.2679223557457,380.60711797044655 765.611544815976,380.06892828337755 764.1032590273601,379.19811907730525 762.8089843164188,378.0327488931412 761.7852866986391,376.62375 761.0769066721645,375.0327024106386 760.7148038433361,373.3291425394056 760.7148038433361,371.587524127261 761.0769066721645,369.88396425602804 761.7852866986391,368.29291666666666 762.8089843164188,366.8839177735254 764.1032590273601,365.7185475893614 765.611544815976,364.8477383832891 767.2679223557457,364.3095486962201 769,364.12749999999994 " style="stroke-linecap:round;fill:none;stroke:rgba(255,0,0,1);stroke-width:1.2816666666666667pt;" /><path d="M 905.4975000000001,372.4583333333333 905.4975000000001,500.625 905.4975000000001,500.625 905.3154513037799,502.3570776442543 904.777261616711,504.013455184024 903.9064524106387,505.52174097263986 902.7410822264746,506.81601568358127 901.3320833333335,507.83971330136086 899.741035743972,508.54809332783555 898.037475872739,508.91019615666386 896.2958574605944,508.91019615666386 894.5922975893615,508.54809332783555 893.00125,507.83971330136086 891.5922511068588,506.81601568358127 890.4268809226947,505.52174097263986 889.5560717166225,504.013455184024 889.0178820295536,502.3570776442543 888.8358333333334,500.625 888.8358333333334,372.4583333333333 888.8358333333334,372.4583333333333 889.0178820295536,370.72625568907904 889.5560717166225,369.0698781493093 890.4268809226947,367.56159236069345 891.5922511068588,366.26731764975204 893.00125,365.24362003197245 894.5922975893615,364.53524000549777 896.2958574605944,364.17313717666946 898.037475872739,364.17313717666946 899.741035743972,364.53524000549777 901.3320833333335,365.24362003197245 902.7410822264746,366.26731764975204 903.9064524106387,367.56159236069345 904.777261616711,369.0698781493094 905.3154513037799,370.72625568907904 905.4975000000001,372.4583333333333 " style="stroke-linecap:round;fill:none;stroke:rgba(255,0,0,1);stroke-width:1.2816666666666667pt;" /><path d="M 897.1666666666667,508.9558333333333 769,508.9558333333333 769,508.9558333333333 767.2679223557457,508.77378463711324 765.611544815976,508.23559495004423 764.1032590273601,507.36478574397194 762.8089843164188,506.1994155598079 761.7852866986391,504.79041666666666 761.0769066721645,503.1993690773053 760.7148038433361,501.4958092060723 760.7148038433361,499.7541907939277 761.0769066721645,498.0506309226947 761.7852866986391,496.45958333333334 762.8089843164188,495.0505844401921 764.1032590273601,493.88521425602806 765.611544815976,493.01440504995577 767.2679223557457,492.47621536288676 769,492.2941666666666 897.1666666666667,492.2941666666666 897.1666666666667,492.2941666666667 898.8987443109211,492.47621536288676 900.5551218506907,493.01440504995577 902.0634076393067,493.88521425602806 903.357682350248,495.0505844401921 904.3813799680277,496.45958333333334 905.0897599945023,498.0506309226947 905.4518628233307,499.75419079392776 905.4518628233305,501.4958092060723 905.0897599945023,503.19936907730533 904.3813799680275,504.7904166666667 903.357682350248,506.19941555980796 902.0634076393065,507.364785743972 900.5551218506907,508.23559495004423 898.898744310921,508.77378463711324 897.1666666666667,508.9558333333333 " style="stroke-linecap:round;fill:none;stroke:rgba(255,0,0,1);stroke-width:1.2816666666666667pt;" /><path d="M 769,508.9558333333333 704.9166666666667,508.9558333333333 704.9166666666667,508.9558333333333 703.1845890224124,508.77378463711324 701.5282114826427,508.23559495004423 700.0199256940268,507.36478574397194 698.7256509830855,506.1994155598079 697.7019533653058,504.79041666666666 696.9935733388312,503.1993690773053 696.6314705100028,501.4958092060723 696.6314705100028,499.7541907939277 696.9935733388312,498.0506309226947 697.7019533653058,496.45958333333334 698.7256509830855,495.0505844401921 700.0199256940268,493.88521425602806 701.5282114826427,493.01440504995577 703.1845890224124,492.47621536288676 704.9166666666667,492.2941666666666 769,492.2941666666666 769,492.2941666666667 770.7320776442543,492.47621536288676 772.388455184024,493.01440504995577 773.8967409726399,493.88521425602806 775.1910156835812,495.0505844401921 776.2147133013609,496.45958333333334 776.9230933278355,498.0506309226947 777.2851961566639,499.75419079392776 777.2851961566638,501.4958092060723 776.9230933278355,503.19936907730533 776.2147133013608,504.7904166666667 775.1910156835812,506.19941555980796 773.8967409726398,507.364785743972 772.388455184024,508.23559495004423 770.7320776442542,508.77378463711324 769,508.9558333333333 " style="stroke-linecap:round;fill:none;stroke:rgba(255,0,0,1);stroke-width:1.2816666666666667pt;" /><path d="M 696.5858333333333,500.625 696.5858333333333,372.4583333333333 696.5858333333334,372.4583333333333 696.7678820295536,370.72625568907904 697.3060717166225,369.0698781493093 698.1768809226947,367.56159236069345 699.3422511068588,366.26731764975204 700.75125,365.24362003197245 702.3422975893615,364.53524000549777 704.0458574605944,364.17313717666946 705.787475872739,364.17313717666946 707.491035743972,364.53524000549777 709.0820833333335,365.24362003197245 710.4910822264746,366.26731764975204 711.6564524106387,367.56159236069345 712.527261616711,369.0698781493093 713.0654513037799,370.72625568907904 713.2475000000001,372.4583333333333 713.2475000000001,500.625 713.2475000000001,500.625 713.0654513037799,502.3570776442543 712.527261616711,504.013455184024 711.6564524106387,505.52174097263986 710.4910822264746,506.81601568358127 709.0820833333335,507.83971330136086 707.491035743972,508.54809332783555 705.787475872739,508.91019615666386 704.0458574605944,508.91019615666386 702.3422975893615,508.54809332783555 700.75125,507.83971330136086 699.3422511068588,506.81601568358127 698.1768809226947,505.52174097263986 697.3060717166225,504.013455184024 696.7678820295536,502.3570776442543 696.5858333333333,500.625 " style="stroke-linecap:round;fill:none;stroke:rgba(255,0,0,1);stroke-width:1.2816666666666667pt;" /><path d="M 704.9166666666667,364.12749999999994 833.0833333333334,364.12749999999994 833.0833333333334,364.1275 834.8154109775877,364.3095486962201 836.4717885173574,364.8477383832891 837.9800743059733,365.7185475893614 839.2743490169146,366.8839177735254 840.2980466346943,368.29291666666666 841.0064266611689,369.88396425602804 841.3685294899972,371.587524127261 841.3685294899972,373.3291425394056 841.0064266611689,375.0327024106386 840.2980466346943,376.62375 839.2743490169146,378.0327488931412 837.9800743059733,379.19811907730525 836.4717885173574,380.06892828337755 834.8154109775877,380.60711797044655 833.0833333333334,380.78916666666663 704.9166666666667,380.78916666666663 704.9166666666667,380.78916666666663 703.1845890224124,380.60711797044655 701.5282114826427,380.06892828337755 700.0199256940268,379.19811907730525 698.7256509830855,378.0327488931412 697.7019533653058,376.62375 696.9935733388312,375.0327024106386 696.6314705100028,373.3291425394056 696.6314705100028,371.587524127261 696.9935733388312,369.88396425602804 697.7019533653058,368.29291666666666 698.7256509830855,366.8839177735254 700.0199256940268,365.7185475893614 701.5282114826427,364.8477383832891 703.1845890224124,364.3095486962201 704.9166666666667,364.12749999999994 " style="stroke-linecap:round;fill:none;stroke:rgba(255,0,0,1);stroke-width:1.2816666666666667pt;" /><path d="M 841.4141666666667,372.4583333333333 841.4141666666667,500.625 841.4141666666667,500.625 841.2321179704466,502.3570776442543 840.6939282833777,504.013455184024 839.8231190773054,505.52174097263986 838.6577488931413,506.81601568358127 837.2487500000001,507.83971330136086 835.6577024106386,508.54809332783555 833.9541425394057,508.91019615666386 832.2125241272611,508.91019615666386 830.5089642560281,508.54809332783555 828.9179166666667,507.83971330136086 827.5089177735255,506.81601568358127 826.3435475893614,505.52174097263986 825.4727383832891,504.013455184024 824.9345486962202,502.3570776442543 824.7525,500.625 824.7525,372.4583333333333 824.7525,372.4583333333333 824.9345486962202,370.72625568907904 825.4727383832891,369.0698781493093 826.3435475893614,367.56159236069345 827.5089177735255,366.26731764975204 828.9179166666667,365.24362003197245 830.5089642560281,364.53524000549777 832.2125241272611,364.17313717666946 833.9541425394057,364.17313717666946 835.6577024106386,364.53524000549777 837.2487500000001,365.24362003197245 838.6577488931413,366.26731764975204 839.8231190773054,367.56159236069345 840.6939282833777,369.0698781493094 841.2321179704466,370.72625568907904 841.4141666666667,372.4583333333333 " style="stroke-linecap:round;fill:none;stroke:rgba(255,0,0,1);stroke-width:1.2816666666666667pt;" /><path d="M 833.0833333333334,492.2941666666666 961.25,492.2941666666666 961.25,492.2941666666667 962.9820776442543,492.47621536288676 964.638455184024,493.01440504995577 966.1467409726399,493.88521425602806 967.4410156835812,495.0505844401921 968.4647133013609,496.45958333333334 969.1730933278355,498.0506309226947 969.5351961566639,499.7541907939277 969.5351961566639,501.4958092060723 969.1730933278355,503.1993690773053 968.4647133013609,504.79041666666666 967.4410156835812,506.1994155598079 966.1467409726399,507.36478574397194 964.638455184024,508.23559495004423 962.9820776442543,508.77378463711324 961.25,508.9558333333333 833.0833333333334,508.9558333333333 833.0833333333334,508.9558333333333 831.351255689079,508.77378463711324 829.6948781493094,508.23559495004423 828.1865923606935,507.36478574397194 826.8923176497522,506.1994155598079 825.8686200319725,504.79041666666666 825.1602400054978,503.1993690773053 824.7981371766696,501.4958092060723 824.7981371766696,499.7541907939277 825.1602400054978,498.0506309226947 825.8686200319725,496.45958333333334 826.8923176497522,495.0505844401921 828.1865923606935,493.88521425602806 829.6948781493094,493.01440504995577 831.351255689079,492.47621536288676 833.0833333333334,492.2941666666666 " style="stroke-linecap:round;fill:none;stroke:rgba(255,0,0,1);stroke-width:1.2816666666666667pt;" /><path d="M 969.5808333333334,500.625 969.5808333333334,628.7916666666666 969.5808333333333,628.7916666666666 969.3987846371132,630.523744310921 968.8605949500443,632.1801218506906 967.989785743972,633.6884076393065 966.8244155598079,634.9826823502478 965.4154166666667,636.0063799680275 963.8243690773053,636.7147599945022 962.1208092060723,637.0768628233304 960.3791907939277,637.0768628233304 958.6756309226947,636.7147599945022 957.0845833333333,636.0063799680275 955.6755844401921,634.9826823502478 954.510214256028,633.6884076393065 953.6394050499557,632.1801218506906 953.1012153628868,630.523744310921 952.9191666666667,628.7916666666666 952.9191666666667,500.625 952.9191666666667,500.625 953.1012153628868,498.8929223557457 953.6394050499557,497.236544815976 954.510214256028,495.72825902736014 955.6755844401921,494.43398431641873 957.0845833333333,493.41028669863914 958.6756309226947,492.70190667216445 960.3791907939277,492.33980384333614 962.1208092060723,492.33980384333614 963.8243690773053,492.70190667216445 965.4154166666667,493.41028669863914 966.8244155598079,494.43398431641873 967.989785743972,495.72825902736014 968.8605949500443,497.23654481597606 969.3987846371132,498.8929223557457 969.5808333333334,500.625 " style="stroke-linecap:round;fill:none;stroke:rgba(255,0,0,1);stroke-width:1.2816666666666667pt;" /><path d="M 961.25,637.1225 833.0833333333334,637.1225 833.0833333333334,637.1225 831.351255689079,636.9404513037798 829.6948781493094,636.4022616167109 828.1865923606935,635.5314524106386 826.8923176497522,634.3660822264745 825.8686200319725,632.9570833333333 825.1602400054978,631.3660357439719 824.7981371766696,629.6624758727389 824.7981371766696,627.9208574605943 825.1602400054978,626.2172975893614 825.8686200319725,624.6262499999999 826.8923176497522,623.2172511068587 828.1865923606935,622.0518809226946 829.6948781493094,621.1810717166223 831.351255689079,620.6428820295534 833.0833333333334,620.4608333333333 961.25,620.4608333333333 961.25,620.4608333333333 962.9820776442543,620.6428820295534 964.638455184024,621.1810717166223 966.1467409726399,622.0518809226946 967.4410156835812,623.2172511068587 968.4647133013609,624.62625 969.1730933278355,626.2172975893614 969.5351961566639,627.9208574605943 969.5351961566638,629.6624758727389 969.1730933278355,631.3660357439719 968.4647133013608,632.9570833333333 967.4410156835812,634.3660822264745 966.1467409726398,635.5314524106386 964.638455184024,636.4022616167109 962.9820776442542,636.9404513037798 961.25,637.1225 " style="stroke-linecap:round;fill:none;stroke:rgba(255,0,0,1);stroke-width:1.2816666666666667pt;" /><path d="M 824.7525,628.7916666666666 824.7525,500.625 824.7525,500.625 824.9345486962202,498.8929223557457 825.4727383832891,497.236544815976 826.3435475893614,495.72825902736014 827.5089177735255,494.43398431641873 828.9179166666667,493.41028669863914 830.5089642560281,492.70190667216445 832.2125241272611,492.33980384333614 833.9541425394057,492.33980384333614 835.6577024106386,492.70190667216445 837.2487500000001,493.41028669863914 838.6577488931413,494.43398431641873 839.8231190773054,495.72825902736014 840.6939282833777,497.236544815976 841.2321179704466,498.8929223557457 841.4141666666667,500.625 841.4141666666667,628.7916666666666 841.4141666666667,628.7916666666666 841.2321179704466,630.523744310921 840.6939282833777,632.1801218506906 839.8231190773054,633.6884076393065 838.6577488931413,634.9826823502478 837.2487500000001,636.0063799680275 835.6577024106386,636.7147599945022 833.9541425394057,637.0768628233304 832.2125241272611,637.0768628233304 830.5089642560281,636.7147599945022 828.9179166666667,636.0063799680275 827.5089177735255,634.9826823502478 826.3435475893614,633.6884076393065 825.4727383832891,632.1801218506906 824.9345486962202,630.523744310921 824.7525,628.7916666666666 " style="stroke-linecap:round;fill:none;stroke:rgba(255,0,0,1);stroke-width:1.2816666666666667pt;" /><path d="M 833.0833333333334,492.2941666666666 865.125,492.2941666666666 865.125,492.2941666666667 866.8570776442543,492.47621536288676 868.513455184024,493.01440504995577 870.0217409726399,493.88521425602806 871.3160156835812,495.0505844401921 872.3397133013609,496.45958333333334 873.0480933278355,498.0506309226947 873.4101961566639,499.7541907939277 873.4101961566639,501.4958092060723 873.0480933278355,503.1993690773053 872.3397133013609,504.79041666666666 871.3160156835812,506.1994155598079 870.0217409726399,507.36478574397194 868.513455184024,508.23559495004423 866.8570776442543,508.77378463711324 865.125,508.9558333333333 833.0833333333334,508.9558333333333 833.0833333333334,508.9558333333333 831.351255689079,508.77378463711324 829.6948781493094,508.23559495004423 828.1865923606935,507.36478574397194 826.8923176497522,506.1994155598079 825.8686200319725,504.79041666666666 825.1602400054978,503.1993690773053 824.7981371766696,501.4958092060723 824.7981371766696,499.7541907939277 825.1602400054978,498.0506309226947 825.8686200319725,496.45958333333334 826.8923176497522,495.0505844401921 828.1865923606935,493.88521425602806 829.6948781493094,493.01440504995577 831.351255689079,492.47621536288676 833.0833333333334,492.2941666666666 " style="stroke-linecap:round;fill:none;stroke:rgba(255,0,0,1);stroke-width:1.2816666666666667pt;" /><path d="M 873.4558333333334,500.625 873.4558333333334,628.7916666666666 873.4558333333333,628.7916666666666 873.2737846371132,630.523744310921 872.7355949500443,632.1801218506906 871.864785743972,633.6884076393065 870.6994155598079,634.9826823502478 869.2904166666667,636.0063799680275 867.6993690773053,636.7147599945022 865.9958092060723,637.0768628233304 864.2541907939277,637.0768628233304 862.5506309226947,636.7147599945022 860.9595833333333,636.0063799680275 859.5505844401921,634.9826823502478 858.385214256028,633.6884076393065 857.5144050499557,632.1801218506906 856.9762153628868,630.523744310921 856.7941666666667,628.7916666666666 856.7941666666667,500.625 856.7941666666667,500.625 856.9762153628868,498.8929223557457 857.5144050499557,497.236544815976 858.385214256028,495.72825902736014 859.5505844401921,494.43398431641873 860.9595833333333,493.41028669863914 862.5506309226947,492.70190667216445 864.2541907939277,492.33980384333614 865.9958092060723,492.33980384333614 867.6993690773053,492.70190667216445 869.2904166666667,493.41028669863914 870.6994155598079,494.43398431641873 871.864785743972,495.72825902736014 872.7355949500443,497.23654481597606 873.2737846371132,498.8929223557457 873.4558333333334,500.625 " style="stroke-linecap:round;fill:none;stroke:rgba(255,0,0,1);stroke-width:1.2816666666666667pt;" /><path d="M 865.125,637.1225 736.9583333333334,637.1225 736.9583333333334,637.1225 735.226255689079,636.9404513037798 733.5698781493094,636.4022616167109 732.0615923606935,635.5314524106386 730.7673176497522,634.3660822264745 729.7436200319725,632.9570833333333 729.0352400054978,631.3660357439719 728.6731371766696,629.6624758727389 728.6731371766696,627.9208574605943 729.0352400054978,626.2172975893614 729.7436200319725,624.6262499999999 730.7673176497522,623.2172511068587 732.0615923606935,622.0518809226946 733.5698781493094,621.1810717166223 735.226255689079,620.6428820295534 736.9583333333334,620.4608333333333 865.125,620.4608333333333 865.125,620.4608333333333 866.8570776442543,620.6428820295534 868.513455184024,621.1810717166223 870.0217409726399,622.0518809226946 871.3160156835812,623.2172511068587 872.3397133013609,624.62625 873.0480933278355,626.2172975893614 873.4101961566639,627.9208574605943 873.4101961566638,629.6624758727389 873.0480933278355,631.3660357439719 872.3397133013608,632.9570833333333 871.3160156835812,634.3660822264745 870.0217409726398,635.5314524106386 868.513455184024,636.4022616167109 866.8570776442542,636.9404513037798 865.125,637.1225 " style="stroke-linecap:round;fill:none;stroke:rgba(255,0,0,1);stroke-width:1.2816666666666667pt;" /><path d="M 728.6275,628.7916666666666 728.6275,500.625 728.6275,500.625 728.8095486962202,498.8929223557457 729.3477383832891,497.236544815976 730.2185475893614,495.72825902736014 731.3839177735255,494.43398431641873 732.7929166666667,493.41028669863914 734.3839642560281,492.70190667216445 736.0875241272611,492.33980384333614 737.8291425394057,492.33980384333614 739.5327024106386,492.70190667216445 741.1237500000001,493.41028669863914 742.5327488931413,494.43398431641873 743.6981190773054,495.72825902736014 744.5689282833777,497.236544815976 745.1071179704466,498.8929223557457 745.2891666666667,500.625 745.2891666666667,628.7916666666666 745.2891666666667,628.7916666666666 745.1071179704466,630.523744310921 744.5689282833777,632.1801218506906 743.6981190773054,633.6884076393065 742.5327488931413,634.9826823502478 741.1237500000001,636.0063799680275 739.5327024106386,636.7147599945022 737.8291425394057,637.0768628233304 736.0875241272611,637.0768628233304 734.3839642560281,636.7147599945022 732.7929166666667,636.0063799680275 731.3839177735255,634.9826823502478 730.2185475893614,633.6884076393065 729.3477383832891,632.1801218506906 728.8095486962202,630.523744310921 728.6275,628.7916666666666 " style="stroke-linecap:round;fill:none;stroke:rgba(255,0,0,1);stroke-width:1.2816666666666667pt;" /><path d="M 728.6275,500.625 728.6275,436.54166666666663 728.6275,436.54166666666663 728.8095486962202,434.80958902241235 729.3477383832891,433.15321148264263 730.2185475893614,431.64492569402677 731.3839177735255,430.35065098308536 732.7929166666667,429.32695336530577 734.3839642560281,428.6185733388311 736.0875241272611,428.25647051000277 737.8291425394057,428.25647051000277 739.5327024106386,428.6185733388311 741.1237500000001,429.32695336530577 742.5327488931413,430.35065098308536 743.6981190773054,431.64492569402677 744.5689282833777,433.15321148264263 745.1071179704466,434.80958902241235 745.2891666666667,436.54166666666663 745.2891666666667,500.625 745.2891666666667,500.625 745.1071179704466,502.3570776442543 744.5689282833777,504.013455184024 743.6981190773054,505.52174097263986 742.5327488931413,506.81601568358127 741.1237500000001,507.83971330136086 739.5327024106386,508.54809332783555 737.8291425394057,508.91019615666386 736.0875241272611,508.91019615666386 734.3839642560281,508.54809332783555 732.7929166666667,507.83971330136086 731.3839177735255,506.81601568358127 730.2185475893614,505.52174097263986 729.3477383832891,504.013455184024 728.8095486962202,502.3570776442543 728.6275,500.625 " style="stroke-linecap:round;fill:none;stroke:rgba(255,0,0,1);stroke-width:1.2816666666666667pt;" /><path d="M 736.9583333333334,428.2108333333333 865.125,428.2108333333333 865.125,428.2108333333333 866.8570776442543,428.3928820295534 868.513455184024,428.9310717166224 870.0217409726399,429.8018809226947 871.3160156835812,430.9672511068587 872.3397133013609,432.37624999999997 873.0480933278355,433.96729758936135 873.4101961566639,435.67085746059433 873.4101961566639,437.4124758727389 873.0480933278355,439.1160357439719 872.3397133013609,440.7070833333333 871.3160156835812,442.11608222647453 870.0217409726399,443.28145241063856 868.513455184024,444.15226161671086 866.8570776442543,444.69045130377987 865.125,444.87249999999995 736.9583333333334,444.87249999999995 736.9583333333334,444.87249999999995 735.226255689079,444.69045130377987 733.5698781493094,444.15226161671086 732.0615923606935,443.28145241063856 730.7673176497522,442.11608222647453 729.7436200319725,440.7070833333333 729.0352400054978,439.1160357439719 728.6731371766696,437.4124758727389 728.6731371766696,435.67085746059433 729.0352400054978,433.96729758936135 729.7436200319725,432.37624999999997 730.7673176497522,430.9672511068587 732.0615923606935,429.8018809226947 733.5698781493094,428.9310717166224 735.226255689079,428.3928820295534 736.9583333333334,428.2108333333333 " style="stroke-linecap:round;fill:none;stroke:rgba(255,0,0,1);stroke-width:1.2816666666666667pt;" /><path d="M 873.4558333333334,436.54166666666663 873.4558333333334,564.7083333333333 873.4558333333333,564.7083333333333 873.2737846371132,566.4404109775876 872.7355949500443,568.0967885173573 871.864785743972,569.6050743059732 870.6994155598079,570.8993490169145 869.2904166666667,571.9230466346942 867.6993690773053,572.6314266611688 865.9958092060723,572.9935294899972 864.2541907939277,572.9935294899972 862.5506309226947,572.6314266611688 860.9595833333333,571.9230466346942 859.5505844401921,570.8993490169145 858.385214256028,569.6050743059732 857.5144050499557,568.0967885173573 856.9762153628868,566.4404109775876 856.7941666666667,564.7083333333333 856.7941666666667,436.54166666666663 856.7941666666667,436.54166666666663 856.9762153628868,434.80958902241235 857.5144050499557,433.15321148264263 858.385214256028,431.64492569402677 859.5505844401921,430.35065098308536 860.9595833333333,429.32695336530577 862.5506309226947,428.6185733388311 864.2541907939277,428.25647051000277 865.9958092060723,428.25647051000277 867.6993690773053,428.6185733388311 869.2904166666667,429.32695336530577 870.6994155598079,430.35065098308536 871.864785743972,431.64492569402677 872.7355949500443,433.1532114826427 873.2737846371132,434.80958902241235 873.4558333333334,436.54166666666663 " style="stroke-linecap:round;fill:none;stroke:rgba(255,0,0,1);stroke-width:1.2816666666666667pt;" /><path d="M 865.125,573.0391666666667 736.9583333333334,573.0391666666667 736.9583333333334,573.0391666666666 735.226255689079,572.8571179704464 733.5698781493094,572.3189282833775 732.0615923606935,571.4481190773053 730.7673176497522,570.2827488931412 729.7436200319725,568.87375 729.0352400054978,567.2827024106385 728.6731371766696,565.5791425394056 728.6731371766696,563.837524127261 729.0352400054978,562.133964256028 729.7436200319725,560.5429166666665 730.7673176497522,559.1339177735254 732.0615923606935,557.9685475893613 733.5698781493094,557.097738383289 735.226255689079,556.5595486962201 736.9583333333334,556.3774999999999 865.125,556.3774999999999 865.125,556.3774999999999 866.8570776442543,556.5595486962201 868.513455184024,557.097738383289 870.0217409726399,557.9685475893613 871.3160156835812,559.1339177735254 872.3397133013609,560.5429166666665 873.0480933278355,562.133964256028 873.4101961566639,563.837524127261 873.4101961566638,565.5791425394056 873.0480933278355,567.2827024106385 872.3397133013608,568.87375 871.3160156835812,570.2827488931412 870.0217409726398,571.4481190773053 868.513455184024,572.3189282833775 866.8570776442542,572.8571179704464 865.125,573.0391666666667 " style="stroke-linecap:round;fill:none;stroke:rgba(255,0,0,1);stroke-width:1.2816666666666667pt;" /><path d="M 745.2891666666667,564.7083333333333 745.2891666666667,692.875 745.2891666666667,692.875 745.1071179704466,694.6070776442543 744.5689282833777,696.263455184024 743.6981190773054,697.7717409726399 742.5327488931413,699.0660156835812 741.1237500000001,700.0897133013609 739.5327024106386,700.7980933278355 737.8291425394057,701.1601961566639 736.0875241272611,701.1601961566639 734.3839642560281,700.7980933278355 732.7929166666667,700.0897133013609 731.3839177735255,699.0660156835812 730.2185475893614,697.7717409726399 729.3477383832891,696.263455184024 728.8095486962202,694.6070776442543 728.6275,692.875 728.6275,564.7083333333333 728.6275,564.7083333333333 728.8095486962202,562.9762556890789 729.3477383832891,561.3198781493093 730.2185475893614,559.8115923606933 731.3839177735255,558.517317649752 732.7929166666667,557.4936200319723 734.3839642560281,556.7852400054977 736.0875241272611,556.4231371766693 737.8291425394057,556.4231371766693 739.5327024106386,556.7852400054977 741.1237500000001,557.4936200319725 742.5327488931413,558.517317649752 743.6981190773054,559.8115923606933 744.5689282833777,561.3198781493093 745.1071179704466,562.976255689079 745.2891666666667,564.7083333333333 " style="stroke-linecap:round;fill:none;stroke:rgba(255,0,0,1);stroke-width:1.2816666666666667pt;" /><path d="M 736.9583333333334,701.2058333333333 608.7916666666667,701.2058333333333 608.7916666666667,701.2058333333333 607.0595890224124,701.0237846371132 605.4032114826427,700.4855949500443 603.8949256940268,699.614785743972 602.6006509830855,698.4494155598079 601.5769533653058,697.0404166666667 600.8685733388312,695.4493690773053 600.5064705100028,693.7458092060723 600.5064705100028,692.0041907939277 600.8685733388312,690.3006309226947 601.5769533653058,688.7095833333333 602.6006509830855,687.3005844401921 603.8949256940268,686.135214256028 605.4032114826427,685.2644050499557 607.0595890224124,684.7262153628868 608.7916666666667,684.5441666666667 736.9583333333334,684.5441666666667 736.9583333333334,684.5441666666667 738.6904109775877,684.7262153628868 740.3467885173574,685.2644050499557 741.8550743059733,686.135214256028 743.1493490169146,687.3005844401921 744.1730466346943,688.7095833333333 744.8814266611689,690.3006309226947 745.2435294899973,692.0041907939277 745.2435294899972,693.7458092060723 744.8814266611689,695.4493690773053 744.1730466346942,697.0404166666667 743.1493490169146,698.4494155598079 741.8550743059732,699.614785743972 740.3467885173574,700.4855949500443 738.6904109775876,701.0237846371132 736.9583333333334,701.2058333333333 " style="stroke-linecap:round;fill:none;stroke:rgba(255,0,0,1);stroke-width:1.2816666666666667pt;" /><path d="M 600.4608333333333,692.875 600.4608333333333,564.7083333333333 600.4608333333334,564.7083333333333 600.6428820295536,562.9762556890789 601.1810717166225,561.3198781493093 602.0518809226947,559.8115923606933 603.2172511068588,558.517317649752 604.62625,557.4936200319725 606.2172975893615,556.7852400054977 607.9208574605944,556.4231371766693 609.662475872739,556.4231371766693 611.366035743972,556.7852400054977 612.9570833333335,557.4936200319723 614.3660822264746,558.517317649752 615.5314524106387,559.8115923606933 616.402261616711,561.3198781493093 616.9404513037799,562.9762556890789 617.1225000000001,564.7083333333333 617.1225000000001,692.875 617.1225000000001,692.875 616.9404513037799,694.6070776442543 616.402261616711,696.263455184024 615.5314524106387,697.7717409726399 614.3660822264746,699.0660156835812 612.9570833333335,700.0897133013609 611.366035743972,700.7980933278355 609.662475872739,701.1601961566639 607.9208574605944,701.1601961566639 606.2172975893615,700.7980933278355 604.62625,700.0897133013609 603.2172511068588,699.0660156835812 602.0518809226947,697.7717409726399 601.1810717166225,696.263455184024 600.6428820295536,694.6070776442543 600.4608333333333,692.875 " style="stroke-linecap:round;fill:none;stroke:rgba(255,0,0,1);stroke-width:1.2816666666666667pt;" /><path d="M 608.7916666666667,556.3774999999999 736.9583333333334,556.3774999999999 736.9583333333334,556.3774999999999 738.6904109775877,556.5595486962201 740.3467885173574,557.097738383289 741.8550743059733,557.9685475893613 743.1493490169146,559.1339177735254 744.1730466346943,560.5429166666665 744.8814266611689,562.133964256028 745.2435294899972,563.837524127261 745.2435294899972,565.5791425394056 744.8814266611689,567.2827024106385 744.1730466346943,568.87375 743.1493490169146,570.2827488931412 741.8550743059733,571.4481190773053 740.3467885173574,572.3189282833775 738.6904109775877,572.8571179704464 736.9583333333334,573.0391666666667 608.7916666666667,573.0391666666667 608.7916666666667,573.0391666666666 607.0595890224124,572.8571179704464 605.4032114826427,572.3189282833775 603.8949256940268,571.4481190773053 602.6006509830855,570.2827488931412 601.5769533653058,568.87375 600.8685733388312,567.2827024106385 600.5064705100028,565.5791425394056 600.5064705100028,563.837524127261 600.8685733388312,562.133964256028 601.5769533653058,560.5429166666665 602.6006509830855,559.1339177735254 603.8949256940268,557.9685475893613 605.4032114826427,557.097738383289 607.0595890224124,556.5595486962201 608.7916666666667,556.3774999999999 " style="stroke-linecap:round;fill:none;stroke:rgba(255,0,0,1);stroke-width:1.2816666666666667pt;" /><path d="M 745.2891666666667,564.7083333333333 745.2891666666667,596.75 745.2891666666667,596.75 745.1071179704466,598.4820776442543 744.5689282833777,600.138455184024 743.6981190773054,601.6467409726399 742.5327488931413,602.9410156835812 741.1237500000001,603.9647133013609 739.5327024106386,604.6730933278355 737.8291425394057,605.0351961566639 736.0875241272611,605.0351961566639 734.3839642560281,604.6730933278355 732.7929166666667,603.9647133013609 731.3839177735255,602.9410156835812 730.2185475893614,601.6467409726399 729.3477383832891,600.138455184024 728.8095486962202,598.4820776442543 728.6275,596.75 728.6275,564.7083333333333 728.6275,564.7083333333333 728.8095486962202,562.9762556890789 729.3477383832891,561.3198781493093 730.2185475893614,559.8115923606933 731.3839177735255,558.517317649752 732.7929166666667,557.4936200319723 734.3839642560281,556.7852400054977 736.0875241272611,556.4231371766693 737.8291425394057,556.4231371766693 739.5327024106386,556.7852400054977 741.1237500000001,557.4936200319725 742.5327488931413,558.517317649752 743.6981190773054,559.8115923606933 744.5689282833777,561.3198781493093 745.1071179704466,562.976255689079 745.2891666666667,564.7083333333333 " style="stroke-linecap:round;fill:none;stroke:rgba(255,0,0,1);stroke-width:1.2816666666666667pt;" /><path d="M 736.9583333333334,605.0808333333333 608.7916666666667,605.0808333333333 608.7916666666667,605.0808333333333 607.0595890224124,604.8987846371132 605.4032114826427,604.3605949500443 603.8949256940268,603.489785743972 602.6006509830855,602.3244155598079 601.5769533653058,600.9154166666667 600.8685733388312,599.3243690773053 600.5064705100028,597.6208092060723 600.5064705100028,595.8791907939277 600.8685733388312,594.1756309226947 601.5769533653058,592.5845833333333 602.6006509830855,591.1755844401921 603.8949256940268,590.010214256028 605.4032114826427,589.1394050499557 607.0595890224124,588.6012153628868 608.7916666666667,588.4191666666667 736.9583333333334,588.4191666666667 736.9583333333334,588.4191666666667 738.6904109775877,588.6012153628868 740.3467885173574,589.1394050499557 741.8550743059733,590.010214256028 743.1493490169146,591.1755844401921 744.1730466346943,592.5845833333333 744.8814266611689,594.1756309226947 745.2435294899973,595.8791907939277 745.2435294899972,597.6208092060723 744.8814266611689,599.3243690773053 744.1730466346942,600.9154166666667 743.1493490169146,602.3244155598079 741.8550743059732,603.489785743972 740.3467885173574,604.3605949500443 738.6904109775876,604.8987846371132 736.9583333333334,605.0808333333333 " style="stroke-linecap:round;fill:none;stroke:rgba(255,0,0,1);stroke-width:1.2816666666666667pt;" /><path d="M 600.4608333333333,596.75 600.4608333333333,468.5833333333333 600.4608333333334,468.5833333333333 600.6428820295536,466.85125568907904 601.1810717166225,465.1948781493093 602.0518809226947,463.68659236069345 603.2172511068588,462.39231764975204 604.62625,461.36862003197245 606.2172975893615,460.66024000549777 607.9208574605944,460.29813717666946 609.662475872739,460.29813717666946 611.366035743972,460.66024000549777 612.9570833333335,461.36862003197245 614.3660822264746,462.39231764975204 615.5314524106387,463.68659236069345 616.402261616711,465.1948781493093 616.9404513037799,466.85125568907904 617.1225000000001,468.5833333333333 617.1225000000001,596.75 617.1225000000001,596.75 616.9404513037799,598.4820776442543 616.402261616711,600.138455184024 615.5314524106387,601.6467409726399 614.3660822264746,602.9410156835812 612.9570833333335,603.9647133013609 611.366035743972,604.6730933278355 609.662475872739,605.0351961566639 607.9208574605944,605.0351961566639 606.2172975893615,604.6730933278355 604.62625,603.9647133013609 603.2172511068588,602.9410156835812 602.0518809226947,601.6467409726399 601.1810717166225,600.138455184024 600.6428820295536,598.4820776442543 600.4608333333333,596.75 " style="stroke-linecap:round;fill:none;stroke:rgba(255,0,0,1);stroke-width:1.2816666666666667pt;" /><path d="M 608.7916666666667,460.2525 736.9583333333334,460.2525 736.9583333333334,460.2525 738.6904109775877,460.4345486962201 740.3467885173574,460.9727383832891 741.8550743059733,461.8435475893614 743.1493490169146,463.0089177735254 744.1730466346943,464.41791666666666 744.8814266611689,466.00896425602804 745.2435294899972,467.712524127261 745.2435294899972,469.4541425394056 744.8814266611689,471.1577024106386 744.1730466346943,472.74875 743.1493490169146,474.1577488931412 741.8550743059733,475.32311907730525 740.3467885173574,476.19392828337755 738.6904109775877,476.73211797044655 736.9583333333334,476.91416666666663 608.7916666666667,476.91416666666663 608.7916666666667,476.91416666666663 607.0595890224124,476.73211797044655 605.4032114826427,476.19392828337755 603.8949256940268,475.32311907730525 602.6006509830855,474.1577488931412 601.5769533653058,472.74875 600.8685733388312,471.1577024106386 600.5064705100028,469.4541425394056 600.5064705100028,467.712524127261 600.8685733388312,466.00896425602804 601.5769533653058,464.41791666666666 602.6006509830855,463.0089177735254 603.8949256940268,461.8435475893614 605.4032114826427,460.9727383832891 607.0595890224124,460.4345486962201 608.7916666666667,460.2525 " style="stroke-linecap:round;fill:none;stroke:rgba(255,0,0,1);stroke-width:1.2816666666666667pt;" /><path d="M 736.9583333333334,460.2525 801.0416666666667,460.2525 801.0416666666667,460.2525 802.7737443109211,460.4345486962201 804.4301218506907,460.9727383832891 805.9384076393067,461.8435475893614 807.232682350248,463.0089177735254 808.2563799680277,464.41791666666666 808.9647599945023,466.00896425602804 809.3268628233307,467.712524127261 809.3268628233307,469.4541425394056 808.9647599945023,471.1577024106386 808.2563799680277,472.74875 807.232682350248,474.1577488931412 805.9384076393067,475.32311907730525 804.4301218506907,476.19392828337755 802.7737443109211,476.73211797044655 801.0416666666667,476.91416666666663 736.9583333333334,476.91416666666663 736.9583333333334,476.91416666666663 735.226255689079,476.73211797044655 733.5698781493094,476.19392828337755 732.0615923606935,475.32311907730525 730.7673176497522,474.1577488931412 729.7436200319725,472.74875 729.0352400054978,471.1577024106386 728.6731371766696,469.4541425394056 728.6731371766696,467.712524127261 729.0352400054978,466.00896425602804 729.7436200319725,464.41791666666666 730.7673176497522,463.0089177735254 732.0615923606935,461.8435475893614 733.5698781493094,460.9727383832891 735.226255689079,460.4345486962201 736.9583333333334,460.2525 " style="stroke-linecap:round;fill:none;stroke:rgba(255,0,0,1);stroke-width:1.2816666666666667pt;" /><path d="M 809.3725000000001,468.5833333333333 809.3725000000001,596.75 809.3725000000001,596.75 809.1904513037799,598.4820776442543 808.652261616711,600.138455184024 807.7814524106387,601.6467409726399 806.6160822264746,602.9410156835812 805.2070833333335,603.9647133013609 803.616035743972,604.6730933278355 801.912475872739,605.0351961566639 800.1708574605944,605.0351961566639 798.4672975893615,604.6730933278355 796.87625,603.9647133013609 795.4672511068588,602.9410156835812 794.3018809226947,601.6467409726399 793.4310717166225,600.138455184024 792.8928820295536,598.4820776442543 792.7108333333334,596.75 792.7108333333334,468.5833333333333 792.7108333333334,468.5833333333333 792.8928820295536,466.85125568907904 793.4310717166225,465.1948781493093 794.3018809226947,463.68659236069345 795.4672511068588,462.39231764975204 796.87625,461.36862003197245 798.4672975893615,460.66024000549777 800.1708574605944,460.29813717666946 801.912475872739,460.29813717666946 803.616035743972,460.66024000549777 805.2070833333335,461.36862003197245 806.6160822264746,462.39231764975204 807.7814524106387,463.68659236069345 808.652261616711,465.1948781493094 809.1904513037799,466.85125568907904 809.3725000000001,468.5833333333333 " style="stroke-linecap:round;fill:none;stroke:rgba(255,0,0,1);stroke-width:1.2816666666666667pt;" /><path d="M 801.0416666666667,605.0808333333333 672.875,605.0808333333333 672.875,605.0808333333333 671.1429223557457,604.8987846371132 669.486544815976,604.3605949500443 667.9782590273601,603.489785743972 666.6839843164188,602.3244155598079 665.6602866986391,600.9154166666667 664.9519066721645,599.3243690773053 664.5898038433361,597.6208092060723 664.5898038433361,595.8791907939277 664.9519066721645,594.1756309226947 665.6602866986391,592.5845833333333 666.6839843164188,591.1755844401921 667.9782590273601,590.010214256028 669.486544815976,589.1394050499557 671.1429223557457,588.6012153628868 672.875,588.4191666666667 801.0416666666667,588.4191666666667 801.0416666666667,588.4191666666667 802.7737443109211,588.6012153628868 804.4301218506907,589.1394050499557 805.9384076393067,590.010214256028 807.232682350248,591.1755844401921 808.2563799680277,592.5845833333333 808.9647599945023,594.1756309226947 809.3268628233307,595.8791907939277 809.3268628233305,597.6208092060723 808.9647599945023,599.3243690773053 808.2563799680275,600.9154166666667 807.232682350248,602.3244155598079 805.9384076393065,603.489785743972 804.4301218506907,604.3605949500443 802.773744310921,604.8987846371132 801.0416666666667,605.0808333333333 " style="stroke-linecap:round;fill:none;stroke:rgba(255,0,0,1);stroke-width:1.2816666666666667pt;" /><path d="M 664.5441666666667,596.75 664.5441666666667,468.5833333333333 664.5441666666667,468.5833333333333 664.7262153628868,466.85125568907904 665.2644050499557,465.1948781493093 666.135214256028,463.68659236069345 667.3005844401921,462.39231764975204 668.7095833333333,461.36862003197245 670.3006309226947,460.66024000549777 672.0041907939277,460.29813717666946 673.7458092060723,460.29813717666946 675.4493690773053,460.66024000549777 677.0404166666667,461.36862003197245 678.4494155598079,462.39231764975204 679.614785743972,463.68659236069345 680.4855949500443,465.1948781493093 681.0237846371132,466.85125568907904 681.2058333333333,468.5833333333333 681.2058333333333,596.75 681.2058333333333,596.75 681.0237846371132,598.4820776442543 680.4855949500443,600.138455184024 679.614785743972,601.6467409726399 678.4494155598079,602.9410156835812 677.0404166666667,603.9647133013609 675.4493690773053,604.6730933278355 673.7458092060723,605.0351961566639 672.0041907939277,605.0351961566639 670.3006309226947,604.6730933278355 668.7095833333333,603.9647133013609 667.3005844401921,602.9410156835812 666.135214256028,601.6467409726399 665.2644050499557,600.138455184024 664.7262153628868,598.4820776442543 664.5441666666667,596.75 " style="stroke-linecap:round;fill:none;stroke:rgba(255,0,0,1);stroke-width:1.2816666666666667pt;" /><path d="M 672.875,476.91416666666663 544.7083333333334,476.91416666666663 544.7083333333334,476.91416666666663 542.976255689079,476.73211797044655 541.3198781493094,476.19392828337755 539.8115923606935,475.32311907730525 538.5173176497522,474.1577488931412 537.4936200319725,472.74875 536.7852400054978,471.1577024106386 536.4231371766696,469.4541425394056 536.4231371766696,467.712524127261 536.7852400054978,466.00896425602804 537.4936200319725,464.41791666666666 538.5173176497522,463.0089177735254 539.8115923606935,461.8435475893614 541.3198781493094,460.9727383832891 542.976255689079,460.4345486962201 544.7083333333334,460.2525 672.875,460.2525 672.875,460.2525 674.6070776442543,460.4345486962201 676.263455184024,460.9727383832891 677.7717409726399,461.8435475893614 679.0660156835812,463.0089177735254 680.0897133013609,464.41791666666666 680.7980933278355,466.00896425602804 681.1601961566639,467.712524127261 681.1601961566639,469.4541425394056 680.7980933278355,471.1577024106386 680.0897133013609,472.74875 679.0660156835812,474.1577488931412 677.7717409726399,475.32311907730525 676.263455184024,476.19392828337755 674.6070776442543,476.73211797044655 672.875,476.91416666666663 " style="stroke-linecap:round;fill:none;stroke:rgba(255,0,0,1);stroke-width:1.2816666666666667pt;" /><path d="M 536.3775,468.5833333333333 536.3775,340.41666666666663 536.3775,340.41666666666663 536.5595486962202,338.68458902241235 537.0977383832891,337.02821148264263 537.9685475893614,335.51992569402677 539.1339177735255,334.22565098308536 540.5429166666667,333.20195336530577 542.1339642560281,332.4935733388311 543.8375241272611,332.13147051000277 545.5791425394057,332.13147051000277 547.2827024106386,332.4935733388311 548.8737500000001,333.20195336530577 550.2827488931413,334.22565098308536 551.4481190773054,335.51992569402677 552.3189282833777,337.02821148264263 552.8571179704466,338.68458902241235 553.0391666666667,340.41666666666663 553.0391666666667,468.5833333333333 553.0391666666667,468.5833333333333 552.8571179704466,470.3154109775876 552.3189282833777,471.9717885173573 551.4481190773054,473.4800743059732 550.2827488931413,474.7743490169146 548.8737500000001,475.7980466346942 547.2827024106386,476.50642666116886 545.5791425394057,476.8685294899972 543.8375241272611,476.8685294899972 542.1339642560281,476.50642666116886 540.5429166666667,475.7980466346942 539.1339177735255,474.7743490169146 537.9685475893614,473.4800743059732 537.0977383832891,471.9717885173573 536.5595486962202,470.3154109775876 536.3775,468.5833333333333 " style="stroke-linecap:round;fill:none;stroke:rgba(255,0,0,1);stroke-width:1.2816666666666667pt;" /><path d="M 544.7083333333334,332.0858333333333 672.875,332.0858333333333 672.875,332.0858333333333 674.6070776442543,332.2678820295534 676.263455184024,332.8060717166224 677.7717409726399,333.6768809226947 679.0660156835812,334.8422511068587 680.0897133013609,336.25124999999997 680.7980933278355,337.84229758936135 681.1601961566639,339.54585746059433 681.1601961566639,341.2874758727389 680.7980933278355,342.9910357439719 680.0897133013609,344.5820833333333 679.0660156835812,345.99108222647453 677.7717409726399,347.15645241063856 676.263455184024,348.02726161671086 674.6070776442543,348.56545130377987 672.875,348.74749999999995 544.7083333333334,348.74749999999995 544.7083333333334,348.74749999999995 542.976255689079,348.56545130377987 541.3198781493094,348.02726161671086 539.8115923606935,347.15645241063856 538.5173176497522,345.99108222647453 537.4936200319725,344.5820833333333 536.7852400054978,342.9910357439719 536.4231371766696,341.2874758727389 536.4231371766696,339.54585746059433 536.7852400054978,337.84229758936135 537.4936200319725,336.25124999999997 538.5173176497522,334.8422511068587 539.8115923606935,333.6768809226947 541.3198781493094,332.8060717166224 542.976255689079,332.2678820295534 544.7083333333334,332.0858333333333 " style="stroke-linecap:round;fill:none;stroke:rgba(255,0,0,1);stroke-width:1.2816666666666667pt;" /><path d="M 681.2058333333333,340.41666666666663 681.2058333333333,468.5833333333333 681.2058333333333,468.5833333333333 681.0237846371132,470.3154109775876 680.4855949500443,471.9717885173573 679.614785743972,473.4800743059732 678.4494155598079,474.7743490169146 677.0404166666667,475.7980466346942 675.4493690773053,476.50642666116886 673.7458092060723,476.8685294899972 672.0041907939277,476.8685294899972 670.3006309226947,476.50642666116886 668.7095833333333,475.7980466346942 667.3005844401921,474.7743490169146 666.135214256028,473.4800743059732 665.2644050499557,471.9717885173573 664.7262153628868,470.3154109775876 664.5441666666667,468.5833333333333 664.5441666666667,340.41666666666663 664.5441666666667,340.41666666666663 664.7262153628868,338.68458902241235 665.2644050499557,337.02821148264263 666.135214256028,335.51992569402677 667.3005844401921,334.22565098308536 668.7095833333333,333.20195336530577 670.3006309226947,332.4935733388311 672.0041907939277,332.13147051000277 673.7458092060723,332.13147051000277 675.4493690773053,332.4935733388311 677.0404166666667,333.20195336530577 678.4494155598079,334.22565098308536 679.614785743972,335.51992569402677 680.4855949500443,337.0282114826427 681.0237846371132,338.68458902241235 681.2058333333333,340.41666666666663 " style="stroke-linecap:round;fill:none;stroke:rgba(255,0,0,1);stroke-width:1.2816666666666667pt;" /><path d="M 672.875,476.91416666666663 640.8333333333334,476.91416666666663 640.8333333333334,476.91416666666663 639.101255689079,476.73211797044655 637.4448781493094,476.19392828337755 635.9365923606935,475.32311907730525 634.6423176497522,474.1577488931412 633.6186200319725,472.74875 632.9102400054978,471.1577024106386 632.5481371766696,469.4541425394056 632.5481371766696,467.712524127261 632.9102400054978,466.00896425602804 633.6186200319725,464.41791666666666 634.6423176497522,463.0089177735254 635.9365923606935,461.8435475893614 637.4448781493094,460.9727383832891 639.101255689079,460.4345486962201 640.8333333333334,460.2525 672.875,460.2525 672.875,460.2525 674.6070776442543,460.4345486962201 676.263455184024,460.9727383832891 677.7717409726399,461.8435475893614 679.0660156835812,463.0089177735254 680.0897133013609,464.41791666666666 680.7980933278355,466.00896425602804 681.1601961566639,467.7125241272611 681.1601961566638,469.4541425394056 680.7980933278355,471.15770241063865 680.0897133013608,472.74875 679.0660156835812,474.1577488931413 677.7717409726398,475.3231190773053 676.263455184024,476.19392828337755 674.6070776442542,476.73211797044655 672.875,476.91416666666663 " style="stroke-linecap:round;fill:none;stroke:rgba(255,0,0,1);stroke-width:1.2816666666666667pt;" /><path d="M 632.5025,468.5833333333333 632.5025,340.41666666666663 632.5025,340.41666666666663 632.6845486962202,338.68458902241235 633.2227383832891,337.02821148264263 634.0935475893614,335.51992569402677 635.2589177735255,334.22565098308536 636.6679166666667,333.20195336530577 638.2589642560281,332.4935733388311 639.9625241272611,332.13147051000277 641.7041425394057,332.13147051000277 643.4077024106386,332.4935733388311 644.9987500000001,333.20195336530577 646.4077488931413,334.22565098308536 647.5731190773054,335.51992569402677 648.4439282833777,337.02821148264263 648.9821179704466,338.68458902241235 649.1641666666667,340.41666666666663 649.1641666666667,468.5833333333333 649.1641666666667,468.5833333333333 648.9821179704466,470.3154109775876 648.4439282833777,471.9717885173573 647.5731190773054,473.4800743059732 646.4077488931413,474.7743490169146 644.9987500000001,475.7980466346942 643.4077024106386,476.50642666116886 641.7041425394057,476.8685294899972 639.9625241272611,476.8685294899972 638.2589642560281,476.50642666116886 636.6679166666667,475.7980466346942 635.2589177735255,474.7743490169146 634.0935475893614,473.4800743059732 633.2227383832891,471.9717885173573 632.6845486962202,470.3154109775876 632.5025,468.5833333333333 " style="stroke-linecap:round;fill:none;stroke:rgba(255,0,0,1);stroke-width:1.2816666666666667pt;" /><path d="M 640.8333333333334,332.0858333333333 769,332.0858333333333 769,332.0858333333333 770.7320776442543,332.2678820295534 772.388455184024,332.8060717166224 773.8967409726399,333.6768809226947 775.1910156835812,334.8422511068587 776.2147133013609,336.25124999999997 776.9230933278355,337.84229758936135 777.2851961566639,339.54585746059433 777.2851961566639,341.2874758727389 776.9230933278355,342.9910357439719 776.2147133013609,344.5820833333333 775.1910156835812,345.99108222647453 773.8967409726399,347.15645241063856 772.388455184024,348.02726161671086 770.7320776442543,348.56545130377987 769,348.74749999999995 640.8333333333334,348.74749999999995 640.8333333333334,348.74749999999995 639.101255689079,348.56545130377987 637.4448781493094,348.02726161671086 635.9365923606935,347.15645241063856 634.6423176497522,345.99108222647453 633.6186200319725,344.5820833333333 632.9102400054978,342.9910357439719 632.5481371766696,341.2874758727389 632.5481371766696,339.54585746059433 632.9102400054978,337.84229758936135 633.6186200319725,336.25124999999997 634.6423176497522,334.8422511068587 635.9365923606935,333.6768809226947 637.4448781493094,332.8060717166224 639.101255689079,332.2678820295534 640.8333333333334,332.0858333333333 " style="stroke-linecap:round;fill:none;stroke:rgba(255,0,0,1);stroke-width:1.2816666666666667pt;" /><path d="M 777.3308333333333,340.41666666666663 777.3308333333333,468.5833333333333 777.3308333333333,468.5833333333333 777.1487846371132,470.3154109775876 776.6105949500443,471.9717885173573 775.739785743972,473.4800743059732 774.5744155598079,474.7743490169146 773.1654166666667,475.7980466346942 771.5743690773053,476.50642666116886 769.8708092060723,476.8685294899972 768.1291907939277,476.8685294899972 766.4256309226947,476.50642666116886 764.8345833333333,475.7980466346942 763.4255844401921,474.7743490169146 762.260214256028,473.4800743059732 761.3894050499557,471.9717885173573 760.8512153628868,470.3154109775876 760.6691666666667,468.5833333333333 760.6691666666667,340.41666666666663 760.6691666666667,340.41666666666663 760.8512153628868,338.68458902241235 761.3894050499557,337.02821148264263 762.260214256028,335.51992569402677 763.4255844401921,334.22565098308536 764.8345833333333,333.20195336530577 766.4256309226947,332.4935733388311 768.1291907939277,332.13147051000277 769.8708092060723,332.13147051000277 771.5743690773053,332.4935733388311 773.1654166666667,333.20195336530577 774.5744155598079,334.22565098308536 775.739785743972,335.51992569402677 776.6105949500443,337.0282114826427 777.1487846371132,338.68458902241235 777.3308333333333,340.41666666666663 " style="stroke-linecap:round;fill:none;stroke:rgba(255,0,0,1);stroke-width:1.2816666666666667pt;" /><path d="M 777.3308333333333,468.5833333333333 777.3308333333333,532.6666666666666 777.3308333333333,532.6666666666666 777.1487846371132,534.398744310921 776.6105949500443,536.0551218506906 775.739785743972,537.5634076393065 774.5744155598079,538.8576823502478 773.1654166666667,539.8813799680275 771.5743690773053,540.5897599945022 769.8708092060723,540.9518628233304 768.1291907939277,540.9518628233304 766.4256309226947,540.5897599945022 764.8345833333333,539.8813799680275 763.4255844401921,538.8576823502478 762.260214256028,537.5634076393065 761.3894050499557,536.0551218506906 760.8512153628868,534.398744310921 760.6691666666667,532.6666666666666 760.6691666666667,468.5833333333333 760.6691666666667,468.5833333333333 760.8512153628868,466.85125568907904 761.3894050499557,465.1948781493093 762.260214256028,463.68659236069345 763.4255844401921,462.39231764975204 764.8345833333333,461.36862003197245 766.4256309226947,460.66024000549777 768.1291907939277,460.29813717666946 769.8708092060723,460.29813717666946 771.5743690773053,460.66024000549777 773.1654166666667,461.36862003197245 774.5744155598079,462.39231764975204 775.739785743972,463.68659236069345 776.6105949500443,465.1948781493094 777.1487846371132,466.85125568907904 777.3308333333333,468.5833333333333 " style="stroke-linecap:round;fill:none;stroke:rgba(255,0,0,1);stroke-width:1.2816666666666667pt;" /><path d="M 769,540.9975 640.8333333333334,540.9975 640.8333333333334,540.9975 639.101255689079,540.8154513037798 637.4448781493094,540.2772616167109 635.9365923606935,539.4064524106386 634.6423176497522,538.2410822264745 633.6186200319725,536.8320833333333 632.9102400054978,535.2410357439719 632.5481371766696,533.5374758727389 632.5481371766696,531.7958574605943 632.9102400054978,530.0922975893614 633.6186200319725,528.5012499999999 634.6423176497522,527.0922511068587 635.9365923606935,525.9268809226946 637.4448781493094,525.0560717166223 639.101255689079,524.5178820295534 640.8333333333334,524.3358333333333 769,524.3358333333333 769,524.3358333333333 770.7320776442543,524.5178820295534 772.388455184024,525.0560717166223 773.8967409726399,525.9268809226946 775.1910156835812,527.0922511068587 776.2147133013609,528.50125 776.9230933278355,530.0922975893614 777.2851961566639,531.7958574605943 777.2851961566638,533.5374758727389 776.9230933278355,535.2410357439719 776.2147133013608,536.8320833333333 775.1910156835812,538.2410822264745 773.8967409726398,539.4064524106386 772.388455184024,540.2772616167109 770.7320776442542,540.8154513037798 769,540.9975 " style="stroke-linecap:round;fill:none;stroke:rgba(255,0,0,1);stroke-width:1.2816666666666667pt;" /><path d="M 632.5025,532.6666666666666 632.5025,404.49999999999994 632.5025,404.49999999999994 632.6845486962202,402.76792235574567 633.2227383832891,401.11154481597595 634.0935475893614,399.6032590273601 635.2589177735255,398.3089843164187 636.6679166666667,397.2852866986391 638.2589642560281,396.5769066721644 639.9625241272611,396.2148038433361 641.7041425394057,396.2148038433361 643.4077024106386,396.5769066721644 644.9987500000001,397.2852866986391 646.4077488931413,398.3089843164187 647.5731190773054,399.6032590273601 648.4439282833777,401.11154481597595 648.9821179704466,402.76792235574567 649.1641666666667,404.49999999999994 649.1641666666667,532.6666666666666 649.1641666666667,532.6666666666666 648.9821179704466,534.398744310921 648.4439282833777,536.0551218506906 647.5731190773054,537.5634076393065 646.4077488931413,538.8576823502478 644.9987500000001,539.8813799680275 643.4077024106386,540.5897599945022 641.7041425394057,540.9518628233304 639.9625241272611,540.9518628233304 638.2589642560281,540.5897599945022 636.6679166666667,539.8813799680275 635.2589177735255,538.8576823502478 634.0935475893614,537.5634076393065 633.2227383832891,536.0551218506906 632.6845486962202,534.398744310921 632.5025,532.6666666666666 " style="stroke-linecap:round;fill:none;stroke:rgba(255,0,0,1);stroke-width:1.2816666666666667pt;" /><path d="M 640.8333333333334,396.1691666666666 769,396.1691666666666 769,396.1691666666666 770.7320776442543,396.3512153628867 772.388455184024,396.8894050499557 773.8967409726399,397.760214256028 775.1910156835812,398.92558444019204 776.2147133013609,400.3345833333333 776.9230933278355,401.92563092269467 777.2851961566639,403.62919079392765 777.2851961566639,405.37080920607224 776.9230933278355,407.0743690773052 776.2147133013609,408.6654166666666 775.1910156835812,410.07441555980785 773.8967409726399,411.2397857439719 772.388455184024,412.1105949500442 770.7320776442543,412.6487846371132 769,412.8308333333333 640.8333333333334,412.8308333333333 640.8333333333334,412.83083333333326 639.101255689079,412.6487846371132 637.4448781493094,412.1105949500442 635.9365923606935,411.2397857439719 634.6423176497522,410.07441555980785 633.6186200319725,408.6654166666666 632.9102400054978,407.0743690773052 632.5481371766696,405.37080920607224 632.5481371766696,403.62919079392765 632.9102400054978,401.92563092269467 633.6186200319725,400.3345833333333 634.6423176497522,398.92558444019204 635.9365923606935,397.760214256028 637.4448781493094,396.8894050499557 639.101255689079,396.3512153628867 640.8333333333334,396.1691666666666 " style="stroke-linecap:round;fill:none;stroke:rgba(255,0,0,1);stroke-width:1.2816666666666667pt;" /></g></svg>